rotated_Sprint_08550001_forces_filt10Hz.mot
version=1
nRows=24
nColumns=19
inDegrees=yes
endheader
time	R_ground_force_vx	R_ground_force_vy	R_ground_force_vz	R_ground_force_px	R_ground_force_py	R_ground_force_pz	R_ground_torque_x	R_ground_torque_y	R_ground_torque_z	L_ground_force_vx	L_ground_force_vy	L_ground_force_vz	L_ground_force_px	L_ground_force_py	L_ground_force_pz	L_ground_torque_x	L_ground_torque_y	L_ground_torque_z	
1.792000	  0.000000	  0.000000	  0.000000	  0.993513	  0.000000	 -0.354252	  0.000000	  0.000000	  0.000000	144.622578	 43.422929	-31.174490	  0.299689	  0.000000	 -0.095423	  0.000000	104.724061	  0.000000
1.792500	  0.000000	  0.000000	  0.000000	  0.996544	  0.000000	 -0.351960	  0.000000	  0.000000	  0.000000	140.043141	 35.596061	-30.300865	  0.297712	  0.000000	 -0.097189	  0.000000	120.309485	  0.000000
1.793000	  0.000000	  0.000000	  0.000000	  0.999574	  0.000000	 -0.349668	  0.000000	  0.000000	  0.000000	135.528774	 28.066958	-29.384917	  0.295735	  0.000000	 -0.098954	  0.000000	143.833446	  0.000000
1.793500	  0.000000	  0.000000	  0.000000	  1.002604	  0.000000	 -0.347375	  0.000000	  0.000000	  0.000000	131.081255	 20.829306	-28.429757	  0.293758	  0.000000	 -0.100719	  0.000000	183.543974	  0.000000
1.794000	  0.000000	  0.000000	  0.000000	  1.005634	  0.000000	 -0.345083	  0.000000	  0.000000	  0.000000	126.702137	 13.876766	-27.438615	  0.291781	  0.000000	 -0.102484	  0.000000	265.012287	  0.000000
1.794500	  0.000000	  0.000000	  0.000000	  1.008664	  0.000000	 -0.342790	  0.000000	  0.000000	  0.000000	  0.000000	  0.000000	  0.000000	  0.289804	  0.000000	 -0.104249	  0.000000	  0.000000	  0.000000
1.795000	  0.000000	  0.000000	  0.000000	  1.011694	  0.000000	 -0.340498	  0.000000	  0.000000	  0.000000	  0.000000	  0.000000	  0.000000	  0.287827	  0.000000	 -0.106014	  0.000000	  0.000000	  0.000000
1.795500	  0.000000	  0.000000	  0.000000	  1.014575	  0.000000	 -0.338362	  0.000000	  0.000000	  0.000000	  0.000000	  0.000000	  0.000000	  0.285659	  0.000000	 -0.108244	  0.000000	  0.000000	  0.000000
1.796000	  0.000000	  0.000000	  0.000000	  1.017457	  0.000000	 -0.336226	  0.000000	  0.000000	  0.000000	  0.000000	  0.000000	  0.000000	  0.283491	  0.000000	 -0.110474	  0.000000	  0.000000	  0.000000
1.796500	  0.000000	  0.000000	  0.000000	  1.020338	  0.000000	 -0.334090	  0.000000	  0.000000	  0.000000	  0.000000	  0.000000	  0.000000	  0.281322	  0.000000	 -0.112704	  0.000000	  0.000000	  0.000000
1.797000	  0.000000	  0.000000	  0.000000	  1.023220	  0.000000	 -0.331954	  0.000000	  0.000000	  0.000000	  0.000000	  0.000000	  0.000000	  0.279154	  0.000000	 -0.114934	  0.000000	  0.000000	  0.000000
1.797500	  0.000000	  0.000000	  0.000000	  1.026101	  0.000000	 -0.329818	  0.000000	  0.000000	  0.000000	  0.000000	  0.000000	  0.000000	  0.276986	  0.000000	 -0.117164	  0.000000	  0.000000	  0.000000
1.798000	  0.000000	  0.000000	  0.000000	  1.028982	  0.000000	 -0.327682	  0.000000	  0.000000	  0.000000	  0.000000	  0.000000	  0.000000	  0.274818	  0.000000	 -0.119394	  0.000000	  0.000000	  0.000000
1.798500	  0.000000	  0.000000	  0.000000	  1.031864	  0.000000	 -0.325546	  0.000000	  0.000000	  0.000000	  0.000000	  0.000000	  0.000000	  0.272650	  0.000000	 -0.121624	  0.000000	  0.000000	  0.000000
1.799000	  0.000000	  0.000000	  0.000000	  1.034745	  0.000000	 -0.323410	  0.000000	  0.000000	  0.000000	  0.000000	  0.000000	  0.000000	  0.270481	  0.000000	 -0.123854	  0.000000	  0.000000	  0.000000
1.799500	  0.000000	  0.000000	  0.000000	  1.037627	  0.000000	 -0.321274	  0.000000	  0.000000	  0.000000	  0.000000	  0.000000	  0.000000	  0.268313	  0.000000	 -0.126084	  0.000000	  0.000000	  0.000000
1.800000	  0.000000	  0.000000	  0.000000	  1.040508	  0.000000	 -0.319138	  0.000000	  0.000000	  0.000000	  0.000000	  0.000000	  0.000000	  0.266145	  0.000000	 -0.128314	  0.000000	  0.000000	  0.000000
1.800500	  0.000000	  0.000000	  0.000000	  1.043279	  0.000000	 -0.317070	  0.000000	  0.000000	  0.000000	  0.000000	  0.000000	  0.000000	  0.264246	  0.000000	 -0.130754	  0.000000	  0.000000	  0.000000
1.801000	  0.000000	  0.000000	  0.000000	  1.046050	  0.000000	 -0.315001	  0.000000	  0.000000	  0.000000	  0.000000	  0.000000	  0.000000	  0.262346	  0.000000	 -0.133193	  0.000000	  0.000000	  0.000000
1.801500	  0.000000	  0.000000	  0.000000	  1.048821	  0.000000	 -0.312933	  0.000000	  0.000000	  0.000000	  0.000000	  0.000000	  0.000000	  0.260447	  0.000000	 -0.135633	  0.000000	  0.000000	  0.000000
1.802000	  0.000000	  0.000000	  0.000000	  1.051592	  0.000000	 -0.310864	  0.000000	  0.000000	  0.000000	  0.000000	  0.000000	  0.000000	  0.258548	  0.000000	 -0.138073	  0.000000	  0.000000	  0.000000
1.802500	  0.000000	  0.000000	  0.000000	  1.054364	  0.000000	 -0.308796	  0.000000	  0.000000	  0.000000	  0.000000	  0.000000	  0.000000	  0.256649	  0.000000	 -0.140512	  0.000000	  0.000000	  0.000000
1.803000	  0.000000	  0.000000	  0.000000	  1.057135	  0.000000	 -0.306728	  0.000000	  0.000000	  0.000000	  0.000000	  0.000000	  0.000000	  0.254749	  0.000000	 -0.142952	  0.000000	  0.000000	  0.000000
1.803500	  0.000000	  0.000000	  0.000000	  1.059906	  0.000000	 -0.304659	  0.000000	  0.000000	  0.000000	  0.000000	  0.000000	  0.000000	  0.252850	  0.000000	 -0.145392	  0.000000	  0.000000	  0.000000
